<?xml version="1.0" encoding="iso-8859-1"?>
<!-- Generator: Adobe Illustrator 19.0.0, SVG Export Plug-In . SVG Version: 6.00 Build 0)  -->
<svg version="1.1" id="Capa_1" xmlns="http://www.w3.org/2000/svg" xmlns:xlink="http://www.w3.org/1999/xlink" x="0px" y="0px"
	 viewBox="0 0 511.989 511.989" style="enable-background:new 0 0 511.989 511.989;" xml:space="preserve">
<path style="fill:#52565A;" d="M280.025,67.647l-60.13-27.821c-18.622-8.616-40.703-0.504-49.319,18.118L90.673,230.806
	L79.269,356.165L17.883,464.434c-8.674,15.299-3.305,34.733,11.995,43.406c4.959,2.813,10.354,4.148,15.675,4.148
	c11.094,0,21.868-5.805,27.73-16.142l64.382-113.553c1.979-3.49,3.281-7.324,3.837-11.298l10.367-111.676l66.233,30.644
	l80.041-172.997C306.759,98.344,298.647,76.264,280.025,67.647z"/>
<path style="fill:#DD9E84;" d="M331.205,175.121c-4.067,0-8.091-0.935-11.755-2.746l-82.649-40.836
	c-13.139-6.492-18.528-22.407-12.035-35.545c6.491-13.139,22.403-18.528,35.545-12.035l76.06,37.581l133.185-10.883
	c14.603-1.198,27.416,9.679,28.61,24.287c1.193,14.606-9.68,27.416-24.288,28.61l-140.511,11.482
	C332.645,175.092,331.925,175.121,331.205,175.121z"/>
<path style="fill:#45484B;" d="M309.819,511.988c-1.717,0-3.457-0.139-5.209-0.427c-17.353-2.856-29.105-19.239-26.25-36.592
	l21.966-133.482L166.14,273.073c-16.538-5.983-25.094-24.239-19.111-40.776c5.983-16.54,24.239-25.094,40.777-19.112L346.876,290.6
	c14.424,5.218,23.079,19.979,20.588,35.115l-26.262,159.594C338.633,500.913,325.13,511.988,309.819,511.988z"/>
<path style="fill:#313438;" d="M218.101,289.963L90.673,230.806l79.91-172.847c4.136-8.946,11.656-15.881,20.906-19.281
	c9.251-3.4,19.473-2.985,28.417,1.153l60.12,27.816c18.622,8.616,26.733,30.697,18.117,49.319L218.101,289.963z"/>
<path style="fill:#8C1E16;" d="M176.117,350.285l108.731-148.632l122.509-72.071c2.702,4.438,8.473,5.904,12.968,3.26L479.043,98.3
	c2.041-1.201,3.022-3.623,2.392-5.906c-0.631-2.283-2.716-3.858-5.084-3.841l-85.405,0.62c-1.513,0.011-2.904,0.828-3.65,2.144
	c-0.746,1.316-0.733,2.93,0.033,4.233l5.308,9.022l-117.37,69.048l-209.94,26.233c-5.178,0.647-9.425,4.41-10.69,9.472
	c-1.266,5.062,0.711,10.381,4.975,13.389l65.578,46.245c17.919,12.636,27.717,33.888,25.689,55.72l-1.439,15.501
	c-0.616,6.626,3.269,12.849,9.492,15.206C165.155,357.743,172.188,355.656,176.117,350.285z"/>
<path style="fill:#DD3E3E;" d="M176.117,350.285l108.731-148.632l122.509-72.071c2.702,4.438,8.473,5.904,12.968,3.26L479.043,98.3
	c2.041-1.201,3.022-3.623,2.392-5.906c-0.631-2.283-2.716-3.858-5.084-3.841l-85.405,0.62c-1.513,0.011-2.904,0.828-3.65,2.144
	c-0.746,1.316-0.733,2.93,0.033,4.233l5.308,9.022l-117.37,69.048l-209.94,26.233c-5.178,0.647-9.425,4.41-10.69,9.472
	c-1.266,5.062,0.711,10.381,4.975,13.389l65.578,46.245c17.919,12.636,27.717,33.888,25.689,55.72l-1.439,15.501
	c-0.616,6.626,3.269,12.849,9.492,15.206C165.155,357.743,172.188,355.656,176.117,350.285z M186.37,271.561l-25.649-43.601
	c-1.79-3.043-1.959-6.593-0.768-9.645c0.872-2.233,2.47-4.198,4.696-5.508c5.268-3.1,12.052-1.34,15.152,3.928l25.649,43.601
	c3.099,5.269,1.341,12.053-3.928,15.152C196.253,278.589,189.47,276.831,186.37,271.561z M167.288,291.685
	c2.408-6.167,9.36-9.215,15.526-6.807c6.167,2.408,9.215,9.358,6.807,15.526c-2.408,6.167-9.358,9.215-15.526,6.807
	C167.928,304.804,164.88,297.853,167.288,291.685z"/>
<path style="fill:#8C1E16;" d="M481.434,92.395c-0.631-2.283-2.716-3.858-5.084-3.841l-85.405,0.62
	c-1.513,0.011-2.904,0.828-3.65,2.144c-0.747,1.316-0.733,2.93,0.033,4.233l5.308,9.022l14.722,25.01
	c2.702,4.438,8.472,5.904,12.967,3.26l58.717-34.542C481.084,97.1,482.064,94.678,481.434,92.395z"/>
<g>
	<path style="fill:#EDB59E;" d="M156.125,214.174c-9.181,0-18.108-4.769-23.02-13.296L62.065,77.544
		c-4.695-8.15-4.723-18.176-0.077-26.354s13.274-13.285,22.677-13.426l121.092-1.378c14.612-0.211,26.711,11.483,26.928,26.139
		c0.218,14.654-11.483,26.71-26.138,26.929l-75.967,0.707l48.515,84.228c7.314,12.7,2.95,28.924-9.75,36.24
		C165.173,213.031,160.619,214.174,156.125,214.174z"/>
	<circle style="fill:#EDB59E;" cx="303.811" cy="54.995" r="54.995"/>
</g>
<g>
</g>
<g>
</g>
<g>
</g>
<g>
</g>
<g>
</g>
<g>
</g>
<g>
</g>
<g>
</g>
<g>
</g>
<g>
</g>
<g>
</g>
<g>
</g>
<g>
</g>
<g>
</g>
<g>
</g>
</svg>
