<svg height="491pt" viewBox="-9 0 491 491.99809" width="491pt" xmlns="http://www.w3.org/2000/svg"><path d="m466.761719 279.058594v39l-101.078125-27.402344s-.171875 152.222656-.171875 154.792969c0 22.390625-21.828125 40.550781-48.75 40.550781-26.917969 0-48.757813-18.160156-48.757813-40.550781s21.828125-40.550781 48.757813-40.550781c5.933593-.015626 11.835937.894531 17.492187 2.699218v-166.078125l70.796875 20.058594zm0 0" fill="#f8ec7d"/><path d="m412.003906 208.75c-.117187 17.828125-2.453125 35.574219-6.953125 52.828125l-70.796875-20.058594v126.867188c-34.050781 27.492187-77.84375 43.113281-125 43.113281-111.980468 0-202.75-90.773438-202.75-202.75 0-111.980469 90.769532-202.75 202.75-202.75 111.976563 0 202.75 90.769531 202.75 202.75zm-124.773437 5.199219c0-44.503907-36.074219-80.582031-80.578125-80.582031s-80.582032 36.078124-80.582032 80.582031c0 44.503906 36.078126 80.578125 80.582032 80.578125 44.5 0 80.578125-36.078125 80.578125-80.578125zm0 0" fill="#e48e66"/><path d="m206.652344 133.367188c44.503906 0 80.578125 36.078124 80.578125 80.582031 0 44.503906-36.074219 80.578125-80.578125 80.578125s-80.582032-36.074219-80.582032-80.578125c.003907-44.503907 36.078126-80.578125 80.582032-80.582031zm23.28125 80.582031c0-12.859375-10.425782-23.28125-23.28125-23.28125-12.859375 0-23.28125 10.421875-23.28125 23.28125 0 12.855469 10.421875 23.277343 23.28125 23.277343 12.859375.003907 23.28125-10.421874 23.28125-23.277343zm0 0" fill="#f8ec7d"/><path d="m229.933594 213.949219c0 12.855469-10.425782 23.277343-23.28125 23.277343-12.859375 0-23.28125-10.421874-23.28125-23.277343 0-12.859375 10.421875-23.28125 23.28125-23.28125 12.855468 0 23.28125 10.421875 23.28125 23.28125zm0 0" fill="#6fe3ff"/><g fill="#63316d"><path d="m206.652344 127.367188c-47.816406 0-86.582032 38.765624-86.582032 86.582031 0 47.816406 38.765626 86.578125 86.582032 86.578125s86.578125-38.761719 86.578125-86.578125c-.054688-47.796875-38.785157-86.527344-86.578125-86.582031zm0 161.160156c-41.191406 0-74.582032-33.390625-74.582032-74.578125 0-41.191407 33.390626-74.582031 74.582032-74.582031 41.1875 0 74.578125 33.390624 74.578125 74.582031-.042969 41.167969-33.410157 74.53125-74.578125 74.578125zm0 0"/><path d="m71.1875 237.46875c3.28125-.476562 5.554688-3.515625 5.082031-6.796875-.917969-6.402344-1.378906-12.863281-1.386719-19.332031-.003906-3.3125-2.691406-5.992188-6-5.992188h-.011718c-3.3125.003906-5.992188 2.695313-5.988282 6.007813.007813 7.039062.511719 14.0625 1.511719 21.03125.472657 3.28125 3.519531 5.554687 6.800781 5.082031zm0 0"/><path d="m209.257812 345.71875c-28.941406.066406-57.113281-9.285156-80.273437-26.640625-22.636719-16.957031-39.410156-40.566406-47.96875-67.527344-.621094-2.066406-2.308594-3.640625-4.414063-4.117187-2.105468-.480469-4.308593.210937-5.761718 1.808594-1.457032 1.59375-1.941406 3.847656-1.273438 5.902343 9.320313 29.363281 27.585938 55.078125 52.242188 73.546875 25.222656 18.910156 55.914062 29.097656 87.4375 29.027344 3.316406 0 6-2.6875 6-6s-2.683594-6-6-6zm0 0"/><path d="m348.003906 189.277344c-3.292968.378906-5.652344 3.355468-5.273437 6.648437.585937 5.125.882812 10.277344.890625 15.433594.007812 3.308594 2.691406 5.988281 6 5.988281h.011718c3.3125-.003906 5.996094-2.699218 5.988282-6.011718-.007813-5.609376-.332032-11.210938-.96875-16.785157-.382813-3.289062-3.355469-5.648437-6.648438-5.273437zm0 0"/><path d="m344.519531 179.820312c1.875 0 3.640625-.875 4.777344-2.367187 1.132813-1.492187 1.507813-3.425781 1.007813-5.234375-17.722657-63.28125-75.332032-107.082031-141.046876-107.242188-3.316406 0-6 2.6875-6 6 0 3.316407 2.683594 6 6 6 60.328126.144532 113.214844 40.351563 129.488282 98.445313.71875 2.59375 3.078125 4.394531 5.773437 4.398437zm0 0"/><path d="m206.652344 184.667969c-16.171875 0-29.28125 13.109375-29.28125 29.28125 0 16.167969 13.109375 29.277343 29.28125 29.277343s29.28125-13.109374 29.28125-29.277343c-.019532-16.164063-13.117188-29.261719-29.28125-29.28125zm0 46.558593c-9.542969 0-17.28125-7.734374-17.28125-17.277343s7.738281-17.28125 17.28125-17.28125c9.542968 0 17.28125 7.738281 17.28125 17.28125-.011719 9.539062-7.742188 17.269531-17.28125 17.277343zm0 0"/><path d="m468.398438 273.285156-56.167969-15.910156c3.765625-15.9375 5.703125-32.25 5.769531-48.625 0-84.433594-50.863281-160.550781-128.867188-192.859375-78-32.308594-167.789062-14.453125-227.492187 45.246094-59.703125 59.703125-77.5625 149.492187-45.25 227.496093 32.308594 78.007813 108.429687 128.867188 192.863281 128.867188 43.285156 0 85.070313-13.09375 119-37.066406v19.488281c-3.792968-.683594-7.640625-1.027344-11.492187-1.023437-30.195313 0-54.757813 20.882812-54.757813 46.550781s24.5625 46.550781 54.757813 46.550781c30.195312 0 54.75-20.882812 54.75-46.550781 0-2.199219.125-115.773438.160156-146.949219l93.519531 25.347656c1.804688.492188 3.730469.109375 5.214844-1.023437 1.484375-1.136719 2.355469-2.898438 2.355469-4.765625v-39c0-2.683594-1.78125-5.042969-4.363281-5.773438zm-259.144532 132.214844c-108.488281 0-196.75-88.265625-196.75-196.75 0-108.488281 88.261719-196.75 196.75-196.75 108.484375 0 196.75 88.261719 196.75 196.75-.066406 15.265625-1.855468 30.480469-5.332031 45.347656l-64.785156-18.351562c-1.808594-.515625-3.753907-.148438-5.253907.984375-1.5 1.136719-2.382812 2.90625-2.378906 4.789062v123.960938c-33.050781 25.816406-75.183594 40.019531-119 40.019531zm251.507813-95.285156-93.507813-25.347656c-1.804687-.488282-3.730468-.109376-5.214844 1.023437-1.484374 1.132813-2.355468 2.894531-2.355468 4.761719 0 1.523437-.171875 152.25-.171875 154.796875 0 19.050781-19.179688 34.550781-42.75 34.550781-23.570313 0-42.757813-15.5-42.757813-34.550781s19.179688-34.550781 42.757813-34.550781c5.308593-.019532 10.589843.792968 15.644531 2.410156 1.828125.589844 3.824219.269531 5.375-.859375 1.554688-1.128907 2.472656-2.933594 2.472656-4.851563v-158.144531l63.160156 17.902344 57.347657 16.242187zm0 0"/></g></svg>